<svg width="32.000000" height="32.000000" viewBox="0 0 32 32" fill="none" xmlns="http://www.w3.org/2000/svg" xmlns:xlink="http://www.w3.org/1999/xlink">
	<desc>
			Created with Pixso.
	</desc>
	<defs/>
	<rect id="Icons/24px/Black/Calendar" rx="-0.500000" width="31.000000" height="31.000000" transform="translate(0.500000 0.500000)" fill="#FFFFFF" fill-opacity="0"/>
	<rect id="Rectangle" x="8.000000" y="15.000000" width="4.000000" height="3.000000" fill="#172B4D" fill-opacity="1.000000"/>
	<rect id="Rectangle" x="14.000000" y="15.000000" width="4.000000" height="3.000000" fill="#172B4D" fill-opacity="1.000000"/>
	<rect id="Rectangle" x="8.000000" y="20.000000" width="4.000000" height="3.000000" fill="#172B4D" fill-opacity="1.000000"/>
	<rect id="Rectangle" x="14.000000" y="20.000000" width="4.000000" height="3.000000" fill="#172B4D" fill-opacity="1.000000"/>
	<rect id="Rectangle" x="20.000000" y="15.000000" width="4.000000" height="3.000000" fill="#172B4D" fill-opacity="1.000000"/>
	<path id="Shape" d="M27 8L22 8L22 6C22 5.44775 21.5523 5 21 5C20.4477 5 20 5.44775 20 6L20 8L12 8L12 6C12 5.44775 11.5523 5 11 5C10.4477 5 10 5.44775 10 6L10 8L5 8C4.44772 8 4 8.44775 4 9L4 27C4 27.5522 4.44772 28 5 28L27 28C27.5523 28 28 27.5522 28 27L28 9C28 8.44775 27.5523 8 27 8ZM6 26L26 26L26 12L6 12L6 26Z" clip-rule="evenodd" fill="#172B4D" fill-opacity="1.000000" fill-rule="evenodd"/>
</svg>
