<svg width="32.000000" height="32.000000" viewBox="0 0 32 32" fill="none" xmlns="http://www.w3.org/2000/svg" xmlns:xlink="http://www.w3.org/1999/xlink">
	<desc>
			Created with Pixso.
	</desc>
	<defs/>
	<rect id="Icons/24px/Black/Shop" rx="-0.500000" width="31.000000" height="31.000000" transform="translate(0.500000 0.500000)" fill="#FFFFFF" fill-opacity="0"/>
	<path id="Path" d="M27.85 10.48L24.85 5.48C24.67 5.18 24.35 5 24 5L8 5C7.64 5 7.32 5.18 7.14 5.48L4.14 10.48C4.04 10.64 4 10.81 4 11C3.99 13.2 5.77 14.99 7.98 15L7.99 15C8.97 15 9.93 14.63 10.66 13.97C12.17 15.34 14.48 15.34 15.99 13.97C17.51 15.34 19.81 15.34 21.33 13.97C22.5 15.03 24.19 15.3 25.63 14.65C27.07 14.01 28 12.57 28 11C28 10.81 27.95 10.64 27.85 10.48Z" fill="#172B4D" fill-opacity="1.000000" fill-rule="nonzero"/>
	<path id="Path" d="M24.01 17C23.08 17 22.16 16.78 21.33 16.37L21.32 16.37C19.9 17.08 18.25 17.19 16.75 16.68C16.49 16.6 16.24 16.49 15.99 16.37L15.98 16.38C14.56 17.08 12.92 17.19 11.42 16.68C11.16 16.6 10.91 16.49 10.66 16.37C9.83 16.78 8.91 17 7.99 17C7.65 16.99 7.32 16.96 7 16.91L7 27C7 27.55 7.44 28 8 28L14 28L14 22L18 22L18 28L24 28C24.55 28 25 27.55 25 27L25 16.9C24.67 16.96 24.34 16.99 24.01 17Z" fill="#172B4D" fill-opacity="1.000000" fill-rule="nonzero"/>
</svg>
