<svg width="32.000000" height="32.000000" viewBox="0 0 32 32" fill="none" xmlns="http://www.w3.org/2000/svg"
>
    <desc>
        Created with Pixso.
    </desc>
    <defs/>
    <rect id="Icons/24px/Black/Satisfied" rx="-0.500000" width="31.000000" height="31.000000"
          transform="translate(0.500000 0.500000)" fill="#FFFFFF" fill-opacity="0"/>
    <path id="Shape"
          d="M16 4C9.37258 4 4 9.37256 4 16C4 22.6274 9.37258 28 16 28C22.6274 28 28 22.6274 28 16C28 12.8174 26.7357 9.76514 24.4853 7.51465C22.2348 5.26416 19.1826 4 16 4ZM12 10C10.3431 10 9 11.3433 9 13L9 14L11 14L11 13C11 12.4478 11.4477 12 12 12C12.5523 12 13 12.4478 13 13L13 14L15 14L15 13C15 11.3433 13.6569 10 12 10ZM21 14L23 14L23 13C23 11.3433 21.6569 10 20 10C18.3431 10 17 11.3433 17 13L17 14L19 14L19 13C19 12.4478 19.4477 12 20 12C20.5523 12 21 12.4478 21 13L21 14ZM23 17C23 20.866 19.866 24 16 24C12.134 24 9 20.866 9 17L9 16L11 16L11 17C11 19.7615 13.2386 22 16 22C18.7614 22 21 19.7615 21 17L21 16L23 16L23 17Z"
          clip-rule="evenodd" fill="#6776de" fill-opacity="1.000000" fill-rule="evenodd"/>
</svg>
