<svg width="32.000000" height="32.000000" viewBox="0 0 32 32" fill="none" xmlns="http://www.w3.org/2000/svg" xmlns:xlink="http://www.w3.org/1999/xlink">
	<desc>
			Created with Pixso.
	</desc>
	<defs/>
	<rect id="Icons/24px/Black/Palette" rx="-0.500000" width="31.000000" height="31.000000" transform="translate(0.500000 0.500000)" fill="#FFFFFF" fill-opacity="0"/>
	<path id="Shape" d="M21 9.2998C22.2 9.2998 23.3 9.59985 24.4 10.0999C28.8854 12.2949 27.8151 18.0417 27.6211 19.0835C27.6118 19.1335 27.6046 19.1726 27.6 19.2C26.1 24.3999 21.3 28 16 28C9.4 28 4 22.5999 4 16C4 12.0999 5.9 8.3999 9.1 6.19995C9.9 5.69995 10.7 5.3999 11.6 5.3999C12.5 5.3999 13.3 5.7998 13.8 6.3999C14.6 7.5 14.3 8.59985 14 9.5C13.9 9.7998 13.8 10.2998 13.8 10.3999C13.9 10.5999 14.1 10.7 14.5 10.7C15.1 10.7 15.9 10.5 16.7 10.2C18 9.7998 19.4 9.2998 21 9.2998ZM18 16C18 17.7 19.3 19 21 19C22.7 19 24 17.7 24 16C24 14.2998 22.7 13 21 13C19.3 13 18 14.2998 18 16ZM7 16C7 14.8999 7.9 14 9 14C10.1 14 11 14.8999 11 16C11 17.0999 10.1 18 9 18C7.9 18 7 17.0999 7 16ZM9.5 21C9.5 22.0999 10.4 23 11.5 23C12.6 23 13.5 22.0999 13.5 21C13.5 19.8999 12.6 19 11.5 19C10.4 19 9.5 19.8999 9.5 21ZM17 25C15.9 25 15 24.0999 15 23C15 21.8999 15.9 21 17 21C18.1 21 19 21.8999 19 23C19 24.0999 18.1 25 17 25Z" clip-rule="evenodd" fill="#172B4D" fill-opacity="1.000000" fill-rule="evenodd"/>
</svg>
