<svg width="32.000000" height="32.000000" viewBox="0 0 32 32" fill="none" xmlns="http://www.w3.org/2000/svg" xmlns:xlink="http://www.w3.org/1999/xlink">
	<desc>
			Created with Pixso.
	</desc>
	<defs/>
	<rect id="Icons/24px/Black/Spaceship" rx="-0.500000" width="31.000000" height="31.000000" transform="translate(0.500000 0.500000)" fill="#FFFFFF" fill-opacity="0"/>
	<path id="Shape" d="M27.58 4.42407C27.3797 4.22217 27.1029 4.11523 26.819 4.12988C12.791 4.86206 7.60899 17.3579 7.55899 17.4839C7.40941 17.8555 7.49599 18.2805 7.77899 18.564L13.436 24.2209C13.7208 24.5054 14.1484 24.5913 14.521 24.439C14.646 24.3879 27.075 19.1479 27.869 5.18604C27.8852 4.90259 27.7802 4.62549 27.58 4.42407ZM17.2343 15.8479C17.9818 16.1572 18.842 15.9861 19.414 15.4141C20.1948 14.6331 20.1948 13.3669 19.414 12.5859C18.842 12.0139 17.9818 11.8425 17.2343 12.1521C16.4869 12.4617 15.9996 13.1909 15.9996 14C15.9996 14.8091 16.4869 15.5383 17.2343 15.8479Z" clip-rule="evenodd" fill="#172B4D" fill-opacity="1.000000" fill-rule="evenodd"/>
	<path id="Path" d="M5.11 22.84C5.83 22.12 6.87 21.83 7.86 22.1C8.84 22.36 9.61 23.13 9.87 24.11C10.14 25.09 9.85 26.14 9.13 26.86C8.02 27.97 4 28 4 28C4 28 4 23.95 5.11 22.84Z" fill="#172B4D" fill-opacity="1.000000" fill-rule="nonzero"/>
	<path id="color-2" d="M14.35 6.34C11.49 5.84 8.57 6.77 6.52 8.82C5.98 9.36 5.52 9.96 5.13 10.62C4.9 11.01 4.97 11.51 5.29 11.84L7.28 13.83C9.13 10.89 11.53 8.35 14.35 6.34Z" fill="#172B4D" fill-opacity="1.000000" fill-rule="nonzero"/>
	<path id="color-3" d="M25.65 17.64C26.15 20.5 25.22 23.42 23.17 25.47C22.63 26.01 22.03 26.47 21.37 26.86C20.98 27.09 20.48 27.02 20.16 26.7L18.17 24.71C21.1 22.86 23.64 20.46 25.65 17.64L25.65 17.64Z" fill="#172B4D" fill-opacity="1.000000" fill-rule="nonzero"/>
</svg>
