<?xml version="1.0" standalone="no"?><!DOCTYPE svg PUBLIC "-//W3C//DTD SVG 1.1//EN" "http://www.w3.org/Graphics/SVG/1.1/DTD/svg11.dtd"><svg t="1724854487656" class="icon" viewBox="0 0 1024 1024" version="1.1" xmlns="http://www.w3.org/2000/svg" p-id="2310" xmlns:xlink="http://www.w3.org/1999/xlink" width="24" height="24"><path d="M879.04 1024H144.896c-42.368-0.512-116.48-22.72-113.28-65.92 9.536-68.48 18.304-171.456 150.912-215.68 140.8-55.552 150.912-61.76 150.912-61.76a201.408 201.408 0 0 1 48.064-59.136c15.168-3.52 2.56-25.6 0-32a206.848 206.848 0 0 1-78.4-137.984c0-26.432 3.392-28.224-9.28-28.224s-42.176-18.56-42.176-83.2 0-67.072 10.944-68.8c1.664-24.704 44.8-6.4 44.8-96.32S378.176 0.448 511.36 0.448c38.784 0 48.832 10.432 85.312 7.744 4.8 11.072-7.744-5.12 0 0 27.968 19.2 130.752 58.816 119.488 167.04 0 89.984 43.008 100.672 44.8 125.376 10.944 1.792 10.944 4.416 10.944 68.864s-29.44 83.2-42.112 83.2-20.096-6.4-20.096 20.224a146.24 146.24 0 0 1-67.52 117.312c-2.496 6.4-15.168 28.224 0 32a201.28 201.28 0 0 1 48 59.136s10.112 6.4 150.72 61.76c133.44 44.8 141.696 148.992 150.784 217.6 2.624 43.328-63.68 63.296-112.64 63.296z" fill="#aeb5bc" p-id="2311"></path></svg>