<svg width="32.000000" height="32.000000" viewBox="0 0 32 32" fill="none" xmlns="http://www.w3.org/2000/svg" xmlns:xlink="http://www.w3.org/1999/xlink">
	<desc>
			Created with Pixso.
	</desc>
	<defs/>
	<rect id="Icons/24px/Black/Bell" rx="-0.500000" width="31.000000" height="31.000000" transform="translate(0.500000 0.500000)" fill="#FFFFFF" fill-opacity="0"/>
	<path id="Path" d="M24 14L24 12C24 7.58 20.41 4 16 4C11.58 4 8 7.58 8 12L8 14C7.95 15.23 7.38 16.38 6.45 17.19C5.62 17.9 5.09 18.91 5 20C5 22.5 9.11 24 16 24C22.88 24 27 22.5 27 20C26.9 18.91 26.37 17.9 25.54 17.19C24.61 16.38 24.04 15.23 24 14Z" fill="#172B4D" fill-opacity="1.000000" fill-rule="nonzero"/>
	<path id="Path" d="M13.14 25.89C13.53 27.14 14.69 27.99 16 27.99C17.3 27.99 18.46 27.14 18.85 25.89C17.96 25.96 17.01 26 16 26C14.98 26 14.03 25.96 13.14 25.89Z" fill="#172B4D" fill-opacity="1.000000" fill-rule="nonzero"/>
</svg>
