<svg width="32.000000" height="32.000000" viewBox="0 0 32 32" fill="none" xmlns="http://www.w3.org/2000/svg" xmlns:xlink="http://www.w3.org/1999/xlink">
	<desc>
			Created with Pixso.
	</desc>
	<defs/>
	<rect id="Icons/24px/Black/Basket" rx="-0.500000" width="31.000000" height="31.000000" transform="translate(0.500000 0.500000)" fill="#FFFFFF" fill-opacity="0"/>
	<path id="Path" d="M6 16L6 25C6 26.65 7.34 28 9 28L23 28C24.65 28 26 26.65 26 25L26 16L6 16Z" fill="#172B4D" fill-opacity="1.000000" fill-rule="nonzero"/>
	<path id="Path" d="M27 12L23.58 12L19.86 5.5L18.13 6.5L21.27 12L10.72 12L13.86 6.5L12.13 5.5L8.41 12L5 12C4.44 12 4 12.44 4 13C4 13.55 4.44 14 5 14L27 14C27.55 14 28 13.55 28 13C28 12.44 27.55 12 27 12Z" fill="#172B4D" fill-opacity="1.000000" fill-rule="nonzero"/>
</svg>
