<svg width="32.000000" height="32.000000" viewBox="0 0 32 32" fill="none" xmlns="http://www.w3.org/2000/svg" xmlns:xlink="http://www.w3.org/1999/xlink">
	<desc>
			Created with Pixso.
	</desc>
	<defs/>
	<rect id="Icons/24px/Black/Atom" rx="-0.500000" width="31.000000" height="31.000000" transform="translate(0.500000 0.500000)" fill="#FFFFFF" fill-opacity="0"/>
	<path id="Shape" d="M20.806 8.448C24.136 7.703 25.526 8.625 26.106 9.53003C26.3959 9.98279 26.5271 10.4794 26.5271 11.005C26.5271 12.5518 25.3911 14.3507 23.82 16.027C25.5935 17.922 26.5165 19.634 26.5165 21.0228C26.5165 21.5549 26.381 22.0397 26.106 22.469C25.068 24.095 22.695 23.974 20.807 23.551C20.552 23.494 20.292 23.426 20.028 23.3521C19.199 26.088 17.847 28 16 28C14.067 28 12.763 25.97 11.975 23.353C10.857 23.668 9.85699 23.829 8.99799 23.829C7.53601 23.829 6.47302 23.374 5.89502 22.4709C5.66284 22.1084 5.48242 21.6266 5.48242 21.0054C5.48242 20.0747 5.88739 18.8308 7.13 17.205C7.435 16.8051 7.78302 16.403 8.15698 16C7.78302 15.597 7.435 15.1949 7.13 14.796C5.88739 13.1702 5.48242 11.9263 5.48242 10.9956C5.48242 10.3744 5.66284 9.8927 5.89502 9.53003C6.92902 7.91199 9.35699 7.91797 11.978 8.65601C12.887 5.65198 14.294 4 16 4C17.847 4 19.199 5.91199 20.027 8.64697C20.291 8.573 20.552 8.505 20.806 8.448ZM24.422 10.608C24.4869 10.7094 24.5198 10.8429 24.5198 11.0048C24.5198 11.9434 23.4127 13.8379 21 15.9821C20.999 14.13 20.832 12.272 20.504 10.5909C21.433 10.326 23.903 9.79895 24.422 10.608ZM11.018 16C13.165 14.098 15.943 12.348 18.588 11.2629C19.121 14.157 19.153 17.666 18.588 20.7371C15.945 19.653 13.167 17.903 11.018 16ZM16 6C16.656 6 17.496 7.20996 18.12 9.29297C17.427 9.56702 16.716 9.89099 16 10.252C15.313 9.90698 14.596 9.58398 13.87 9.29895C14.586 6.90698 15.508 6 16 6ZM7.57898 10.608C8.00897 9.93396 10.406 9.95105 13.855 11.451C12.284 12.412 10.891 13.432 9.586 14.601C8.94208 13.9015 7.46826 12.0883 7.46826 11.0316C7.46826 10.8706 7.50244 10.7273 7.57898 10.608ZM7.578 21.392C7.50183 21.2729 7.46783 21.1299 7.46783 20.9692C7.46783 19.9131 8.94019 18.1003 9.586 17.399C10.066 17.829 10.578 18.2531 11.117 18.668C11.197 19.575 11.322 20.5 11.499 21.403C9.099 22.09 7.84302 21.803 7.578 21.392ZM16 26C15.182 26 13.909 23.958 13.318 20.219C14.922 21.245 16.563 22.092 18.12 22.707C17.496 24.79 16.656 26 16 26ZM24.421 21.392C23.905 22.204 21.43 21.673 20.504 21.41C20.674 20.537 20.796 19.615 20.879 18.673C21.391 18.278 21.899 17.859 22.389 17.42C23.9687 19.1179 24.5105 20.3589 24.5105 21.0166C24.5105 21.177 24.4783 21.3027 24.421 21.392Z" clip-rule="evenodd" fill="#172B4D" fill-opacity="1.000000" fill-rule="evenodd"/>
	<path id="Oval" d="M16 17C16.55 17 17 16.55 17 16C17 15.44 16.55 15 16 15C15.44 15 15 15.44 15 16C15 16.55 15.44 17 16 17Z" fill="#172B4D" fill-opacity="1.000000" fill-rule="nonzero"/>
</svg>
